name new_emg_signals
nRows=68
nColumns=7
 
endheader
time	LGLTMED	LRF	LADDLONG	LBF	LTA	LGM
0.0	0.0868914762220659	1.0	0.0417480500334965	0.0310009472855369	0.2477732056661753	0.2552202746821816
0.009999999999999787	0.0602056088067801	0.9495214532898908	0.0625453451883282	0.0034144130180829	0.2625525670558664	0.2678533797839771
0.02000000000000135	0.0335351762117976	0.8995127788694034	0.0833004312541388	0.0239231055096471	0.2773363379746646	0.2805013705602952
0.030000000000001137	0.0068966741201985	0.8500027918739536	0.1040003670864833	0.0509941948069208	0.2921146525179054	0.2931560794253997
0.040000000000000924	0.0196933466477839	0.8010196361283233	0.1246322866917219	0.0777818028179379	0.3068776611317503	0.3058093541833933
0.049999999999998934	0.0462182983503988	0.7525907452765972	0.145183419194886	0.1042692668285195	0.3216155479895741	0.3184530730623325
0.05999999999999872	0.0726615746077243	0.7047428054618589	0.1656411086065152	0.130440340668068	0.3363185483632017	0.3310791597255921
0.06999999999999851	0.09900656872922	0.6575017196409865	0.1859928333287805	0.1562792211280141	0.3509769659295835	0.3436795982059014
0.0799999999999983	0.1252366920624521	0.6108925736105509	0.20622622534676	0.1817705735198651	0.365581189954299	0.3562464477074992
0.0899999999999963	0.1513353923407353	0.5649396038118101	0.2263290890555582	0.2068995562985573	0.3801217122952524	0.3687718572239343
0.09999999999999609	0.1772861720077957	0.5196661669760112	0.246289419679324	0.2316518446801457	0.3945891441736015	0.3812480799219002
0.10999999999999588	0.2030726064977066	0.4750947116647818	0.2660954212425986	0.256013653186494	0.4089742326638665	0.3936674872456013
0.11999999999999744	0.2286783624490733	0.4312467517534042	0.2857355240571617	0.2799717570523027	0.4232678768602104	0.4060225827002569
0.12999999999999723	0.2540872158325791	0.3881428418973786	0.3051984016890966	0.3035135124325563	0.4374611436801705	0.4183060152785914
0.13999999999999702	0.2792830699722666	0.3458025550156731	0.3244729873724375	0.3266268753509707	0.4515452832703286	0.4305105924962825
0.1499999999999968	0.3042499734415793	0.3042444618177755	0.3435484898373046	0.3493004193334819	0.4655117439808413	0.4426292930062506
0.1599999999999966	0.3289721378160944	0.2634861123956956	0.3624144085230547	0.3715233516742153	0.4793521868777167	0.4546552787620907
0.16999999999999638	0.3534339552658793	0.2235440198947157	0.3810605481492941	0.3932855282843417	0.4930584997631433	0.4665819067026519
0.17999999999999616	0.3776200159713834	0.1844336462675747	0.399477032620514	0.4145774670775406	0.5066228106747636	0.4784027399293972
0.18999999999999595	0.4015151253480191	0.1461693901063646	0.4176543182424089	0.4353903598501777	0.5200375008346475	0.4901115583483311
0.1999999999999975	0.4251043210651194	0.108764576537389	0.4355832062291726	0.4557160826208816	0.5332952170181363	0.5017023687492779
0.2099999999999973	0.4483728898454493	0.0722314491581973	0.4532548544825927	0.4755472044042668	0.5463888833118166	0.5131694142956871
0.2199999999999971	0.4713063840309959	0.0365811639924257	0.4706607886254607	0.4948769944060494	0.5593117122286428	0.5245071833998372
0.2299999999999951	0.4938906379008495	0.0018237854356103	0.4877929122753717	0.5136994276387918	0.5720572151468702	0.5357104179583164
0.2399999999999931	0.5161117837265217	0.0320317158376622	0.5046435165485367	0.5320091889672225	0.5846192120387087	0.5467741209233303
0.24999999999999467	0.5379562675497749	0.064977463038477	0.5212052887856916	0.5498016755995291	0.5969918404555182	0.5576935631870377
0.2599999999999927	0.5594108646671041	0.0970066715370511	0.5374713204934795	0.5670729980486833	0.6091695637394654	0.5684642897581133
0.26999999999999424	0.5804626948040859	0.1281136452854971	0.5534351144948682	0.583819979594737	0.6211471784362099	0.5790821252146341
0.27999999999999226	0.601099236961522	0.1582937714330567	0.5690905912816329	0.6000401542848431	0.6329198208880282	0.5895431784200473
0.2899999999999938	0.6213083439143776	0.1875435131795327	0.5844320945617456	0.6157317635112982	0.6444829729909383	0.5998438464937226
0.29999999999999183	0.64107825634358	0.2158604009149383	0.5994543959938697	0.6308937512108238	0.6558324671029866	0.6099808180295373
0.3099999999999934	0.6603976165797054	0.2432430216957547	0.6141526991017875	0.6455257577313974	0.6669644900943832	0.6199510755590416
0.3199999999999914	0.679255481936165	0.2696910071100407	0.6285226423624738	0.6596281124167558	0.6778755865337653	0.6297518972579306
0.32999999999999297	0.6976413376082699	0.2952050195846329	0.64256030146393	0.6732018249615579	0.6885626610081956	0.6393808578972737
0.339999999999991	0.715545109112923	0.3197867371882984	0.6562621907316888	0.6862485755919632	0.6990229795771262	0.6488358290424812
0.34999999999999254	0.7329571742425258	0.3434388369855025	0.6696252637259812	0.6987707041267487	0.7092541703624683	0.6581149785059404
0.35999999999999055	0.749868374506108	0.3661649769972546	0.68264691301352	0.7107711979742453	0.7192542232787486	0.667216769061781
0.3699999999999921	0.7662700260306693	0.387969776827918	0.6953249691188818	0.7222536791202689	0.7290214889098987	0.676139956434264
0.3799999999999901	0.7821539298964529	0.4088587970193445	0.7076576986616797	0.7332223901626205	0.7385546765425957	0.684883586575677
0.3899999999999917	0.7975123818805382	0.4288385171954135	0.7196438016877704	0.7436821794480462	0.7478528513694522	0.6934469922522573
0.3999999999999897	0.8123381815836538	0.4479163130609603	0.7312824082062838	0.7536384853677681	0.7569154308778597	0.7018297889586113
0.40999999999999126	0.8266246409148639	0.466100432319543	0.742573073949455	0.7630973198676966	0.7657421804417925	0.7100318701821531
0.41999999999998927	0.8403655919080485	0.483399969574697	0.7535157753769415	0.7720652512285715	0.7743332081350678	0.7180534020396745
0.42999999999999083	0.8535553938446406	0.4998248402795482	0.7641109039502239	0.780549386170245	0.782688958786067	0.7258948173088208
0.43999999999998884	0.8661889396581078	0.5153857537996438	0.7743592597039828	0.7885573513328685	0.7908102072956962	0.7335568088780761
0.4499999999999904	0.8782616615982016	0.5300941856534493	0.7842620441414837	0.7960972741865053	0.79869805124187	0.7410403226392797
0.4599999999999884	0.8897695361358615	0.5439623489941686	0.7938208524805617	0.8031777634192049	0.8063539027947779	0.7483465498463396
0.46999999999999	0.900709088091876	0.5570031653954175	0.8030376652767083	0.8098078888515217	0.8137794799683182	0.7554769189640645
0.479999999999988	0.9110773939747232	0.5692302350020186	0.8119148394507495	0.8159971609231809	0.820976797235158	0.7624330870321494
0.48999999999998956	0.9208720845162764	0.5806578061062239	0.8204550987497047	0.8217555097956231	0.8279481555357205	0.7692169305705989
0.49999999999998757	0.9300913463987744	0.5913007442085614	0.8286615236699422	0.8270932641124852	0.834696131713975	0.7758305360546235
0.5099999999999891	0.9387339231720908	0.6011745006218311	0.8365375408713354	0.8320211294595807	0.8412235674145934	0.7822761899881087
0.5199999999999871	0.9467991153650792	0.6102950806760657	0.8440869121106896	0.8365501665655299	0.8475335574769051	0.7885563686048638
0.5299999999999887	0.954286779797022	0.6186790115819182	0.8513137227225529	0.8406917692842013	0.8536294378614511	0.7946737272279254
0.5399999999999867	0.9611973280964388	0.6263433100096311	0.8582223696759581	0.8444576423995809	0.859514773145047	0.8006310893177463
0.5499999999999883	0.96753172443504	0.633305449440254	0.8648175492361251	0.8478597792924709	0.8651933436204285	0.8064314352398435
0.5599999999999863	0.9732914824845488	0.6395833273450172	0.8711042442606496	0.8509104395065699	0.870669132036825	0.8120778907835512
0.5699999999999878	0.9784786616045028	0.6451952322473851	0.8770877111595129	0.8536221262491469	0.8759463100183013	0.8175737154630863
0.5799999999999859	0.9830958622705338	0.6501598107208199	0.8827734665486233	0.8560075638592484	0.881029224197617	0.8229222906332694
0.5899999999999874	0.9871462207559104	0.6544960343738293	0.8881672736267879	0.8580796752739461	0.885922382105052	0.8281271074532898
0.5999999999999854	0.9906334030834264	0.6582231668730252	0.8932751283068383	0.8598515595213627	0.8906304378539601	0.8331917547341545
0.609999999999987	0.993561598268147	0.6613607310544044	0.8981032451316419	0.8613364692675356	0.895158177667017	0.8381199067067046
0.619999999999985	0.9959355108746472	0.6639284761725578	0.9026580430060008	0.8625477884430593	0.8995105052882452	0.8429153107473062
0.6299999999999866	0.9977603529157244	0.6659463453365951	0.9069461307748148	0.8634990099747514	0.903692427325732	0.8475817750981005
0.6399999999999846	0.9990418351219682	0.6674344431802695	0.91097429267836	0.8642037136474379	0.9077090385689356	0.8521231566174322
0.6499999999999861	0.9997861576129348	0.6684130038124559	0.9147494737159252	0.8646755441211638	0.9115655073231684	0.8565433485947384
0.6599999999999842	1.0	0.6689023590929802	0.9182787649504064	0.8649281891290443	0.9152670608025292	0.8608462686640663
0.6699999999999857	0.9996905109496408	0.6689229072780257	0.92156938878759	0.8649753578799141	0.918818970621252	0.8650358468486421
